<svg xmlns="http://www.w3.org/2000/svg" viewBox="0 0 64 64" fill="none" role="img" aria-label="Tyravel">
  <defs>
    <linearGradient id="tyravel-bg" x1="6" y1="4" x2="58" y2="60" gradientUnits="userSpaceOnUse">
      <stop stop-color="#3730a3"/>
      <stop offset="0.45" stop-color="#4f46e5"/>
      <stop offset="1" stop-color="#7c3aed"/>
    </linearGradient>
    <linearGradient id="tyravel-accent" x1="20" y1="48" x2="44" y2="54" gradientUnits="userSpaceOnUse">
      <stop stop-color="#a5b4fc"/>
      <stop offset="1" stop-color="#22d3ee"/>
    </linearGradient>
  </defs>
  <rect x="4" y="4" width="56" height="56" rx="14" fill="url(#tyravel-bg)"/>
  <rect x="4" y="4" width="56" height="56" rx="14" stroke="#a5b4fc" stroke-opacity="0.28" stroke-width="1"/>
  <path
    stroke="#c7d2fe"
    stroke-width="3.5"
    stroke-linecap="round"
    fill="none"
    d="M18.5 20.5c-6 0-6 11.5 0 11.5M18.5 32c-6 0-6 11.5 0 11.5"
  />
  <path
    stroke="#c7d2fe"
    stroke-width="3.5"
    stroke-linecap="round"
    fill="none"
    d="M45.5 20.5c6 0 6 11.5 0 11.5M45.5 32c6 0 6 11.5 0 11.5"
  />
  <rect x="16" y="20" width="32" height="9" rx="2.5" fill="#ffffff"/>
  <rect x="27.5" y="29" width="9" height="19" rx="2.5" fill="#ffffff"/>
  <rect x="22" y="50" width="20" height="3.5" rx="1.75" fill="url(#tyravel-accent)"/>
</svg>